<?xml version="1.0" encoding="utf-8"?>
<!-- Generator: Adobe Illustrator 19.2.0, SVG Export Plug-In . SVG Version: 6.00 Build 0)  -->
<svg version="1.1" id="Layer_1" xmlns="http://www.w3.org/2000/svg" xmlns:xlink="http://www.w3.org/1999/xlink" x="0px" y="0px"
	 viewBox="0 0 730 187" style="enable-background:new 0 0 730 187;" xml:space="preserve">
<style type="text/css">
	.st0{fill:#C40000;}
</style>
<g id="Square">
</g>
<g id="Logo">
	<path class="st0" d="M720.2,43.8c0,0-471.8,0-529.9,0s-62.7,48-62.7,48v81.5H164c0-0.1,0-0.1,0,0c0-42.3,34.3-76.7,76.7-76.7
		c42.3,0,76.7,34.3,76.7,76.7h31.3c0-42.3,34.3-76.7,76.7-76.7c42.3,0,76.7,34.3,76.7,76.7h28.3c0-42.3,34.3-76.7,76.7-76.7
		c42.3,0,76.7,34.3,76.7,76.7h36.7L720.2,43.8z"/>
	<g>
		<path class="st0" d="M92.5,90v27.8l-41-53L5.8,99.4c7-3.6,27.8-10.6,53.8,13.6c18.8,17.5,50.3,53.9,55.6,60.1l0.3,0.2V89.2
			c0,0,1.5-56.6,70.3-56.6c0.7,0,1.5,0,2.3,0l-22.9-19.8C139.5,17.3,92.5,33.2,92.5,90z"/>
		<path class="st0" d="M720.3,11H181.5c0,0-1,0-2.9,0.1l24.8,21.4c107,0,517,0,517,0V11H720.3z"/>
	</g>
</g>
</svg>
