<?xml version="1.0" encoding="utf-8"?>
<!-- Generator: Adobe Illustrator 17.0.0, SVG Export Plug-In . SVG Version: 6.00 Build 0)  -->
<!DOCTYPE svg PUBLIC "-//W3C//DTD SVG 1.1//EN" "http://www.w3.org/Graphics/SVG/1.1/DTD/svg11.dtd">
<svg version="1.1" id="Layer_1" xmlns="http://www.w3.org/2000/svg" xmlns:xlink="http://www.w3.org/1999/xlink" x="0px" y="0px"
	 width="752px" height="296px" viewBox="0 0 752 296" enable-background="new 0 0 752 296" xml:space="preserve">
<g id="Square">
</g>
<g id="Logo">
	<path fill="#EB5E66" d="M720.211,52.845c0,0-471.817,0-529.906,0s-62.744,47.981-62.744,47.981v81.482h36.438
		c0-0.062,0-0.123,0.001,0c0-42.346,34.328-76.674,76.674-76.674c42.345,0,76.673,34.328,76.673,76.674h31.317
		c0-42.346,34.329-76.674,76.673-76.674c42.347,0,76.674,34.328,76.674,76.674h28.295c0-42.346,34.327-76.674,76.674-76.674
		c42.345,0,76.673,34.328,76.673,76.674h36.687L720.211,52.845z"/>
	<g>
		<path fill="#EB5E66" d="M92.451,99.046v27.817l-41.02-53.011L5.76,108.368c7.031-3.582,27.801-10.56,53.833,13.632
			c18.829,17.499,50.26,53.891,55.614,60.123l0.285,0.186V98.203c0,0,1.505-56.622,70.297-56.622c0.729,0,1.516,0,2.33,0
			l-22.913-19.813C139.511,26.252,92.451,42.215,92.451,99.046z"/>
		<path fill="#EB5E66" d="M720.339,20.018H181.497c0,0-1.045,0.011-2.903,0.127l24.765,21.437c107.017,0,516.98,0,516.98,0V20.018z"
			/>
	</g>
</g>
<g id="Text">
	<rect x="122.493" y="220.947" fill="none" width="602.168" height="52.053"/>
	
		<text transform="matrix(1 0 0 1 122.4927 266.5791)" fill="#231F20" font-family="'Constantia'" font-size="62" letter-spacing="3">Rules and Elections</text>
	<rect x="123.366" y="232" fill="none" width="601.168" height="101"/>
	
		<text transform="matrix(1 0 0 1 123.3657 260.3994)" display="none" enable-background="new    " font-family="'ArialMT'" font-size="40" letter-spacing="8">Rules and Elections</text>
</g>
</svg>
