<?xml version="1.0" encoding="utf-8"?>
<!-- Generator: Adobe Illustrator 19.2.0, SVG Export Plug-In . SVG Version: 6.00 Build 0)  -->
<svg version="1.1" id="Layer_1" xmlns="http://www.w3.org/2000/svg" xmlns:xlink="http://www.w3.org/1999/xlink" x="0px" y="0px"
	 viewBox="0 0 752 296" style="enable-background:new 0 0 752 296;" xml:space="preserve">
<style type="text/css">
	.st0{fill:#EB5E66;}
	.st1{fill:none;}
	.st2{enable-background:new    ;}
	.st3{fill:#231F20;}
	.st4{display:none;enable-background:new    ;}
	.st5{font-family:'ArialMT';}
	.st6{font-size:40px;}
	.st7{letter-spacing:8;}
</style>
<g id="Square">
</g>
<g id="Logo">
	<path class="st0" d="M720.2,52.8c0,0-471.8,0-529.9,0s-62.7,48-62.7,48v81.5H164c0-0.1,0-0.1,0,0c0-42.3,34.3-76.7,76.7-76.7
		c42.3,0,76.7,34.3,76.7,76.7h31.3c0-42.3,34.3-76.7,76.7-76.7c42.3,0,76.7,34.3,76.7,76.7h28.3c0-42.3,34.3-76.7,76.7-76.7
		c42.3,0,76.7,34.3,76.7,76.7h36.7L720.2,52.8z"/>
	<g>
		<path class="st0" d="M92.5,99v27.8l-41-53L5.8,108.4c7-3.6,27.8-10.6,53.8,13.6c18.8,17.5,50.3,53.9,55.6,60.1l0.3,0.2V98.2
			c0,0,1.5-56.6,70.3-56.6c0.7,0,1.5,0,2.3,0l-22.9-19.8C139.5,26.3,92.5,42.2,92.5,99z"/>
		<path class="st0" d="M720.3,20H181.5c0,0-1,0-2.9,0.1l24.8,21.4c107,0,517,0,517,0V20z"/>
	</g>
</g>
<g id="Text">
	<rect x="122.5" y="220.9" class="st1" width="602.2" height="52.1"/>
	<g class="st2">
		<path class="st3" d="M136,257.3c0,1.2,0,2.3,0,3.3c0,1,0,1.8,0,2.6c0,0.6,0.3,1,0.8,1.2l3.4,1l0.1,1.3c-2.4-0.1-4.8-0.1-7.2-0.1
			c-2.4,0-4.9,0-7.5,0.1l-0.1-1.3l3.7-1.1c0.5-0.1,0.8-0.5,0.8-0.9c0-0.8,0-1.7,0-2.7c0-1,0-2.1,0-3.3v-24.6c0-1,0-2,0-2.8
			c0-0.8,0-1.6,0-2.2c0-0.5-0.3-0.9-0.7-1l-3.8-1.2l-0.1-1.3c2.6,0.1,5.1,0.1,7.6,0.1c0.5,0,1.1,0,1.9,0c0.8,0,1.7-0.1,2.8-0.1
			c1.1,0,2-0.1,2.8-0.1c0.7,0,1.3,0,1.7,0c4.6,0,8.1,0.9,10.5,2.6c2.3,1.7,3.5,4.3,3.5,7.6c0,3-0.8,5.4-2.4,7.3
			c-1.6,1.9-4,3.3-7.3,4.3c1.3,1.9,2.5,3.8,3.6,5.6c1.1,1.8,2.1,3.5,3,5c0.9,1.5,1.8,2.8,2.6,4s1.5,2.1,2.2,2.7
			c0.3,0.3,0.7,0.6,1,0.9c0.3,0.3,0.7,0.5,1.1,0.6c0.4,0.2,0.8,0.3,1.2,0.4c0.4,0.1,0.9,0.2,1.4,0.4l0.1,1.3
			c-1.5,0.2-2.7,0.3-3.7,0.3c-0.8,0-1.6,0-2.2-0.1c-0.6,0-1.2-0.1-1.7-0.2s-0.9-0.3-1.3-0.5c-0.4-0.2-0.8-0.4-1.2-0.7
			c-0.8-0.6-1.7-1.5-2.5-2.7c-0.8-1.2-1.6-2.5-2.5-4c-0.9-1.5-1.8-3.1-2.7-4.8c-0.9-1.7-1.9-3.3-3-5c-0.3-0.5-0.6-0.9-0.8-1.2
			c-0.2-0.3-0.5-0.5-0.7-0.7c-0.3-0.2-0.6-0.3-0.9-0.3s-0.8-0.1-1.3-0.1l-2.1-0.1V257.3z M136,244.5c1.2,0.1,2.4,0.1,3.4,0.1
			c3.5,0,6-0.7,7.7-2.2c1.6-1.5,2.4-3.8,2.4-7c0-3.1-0.8-5.3-2.3-6.7c-1.6-1.4-4-2.1-7.3-2.1c-0.6,0-1.2,0-1.8,0.1
			c-0.6,0-1.3,0.1-2.1,0.2V244.5z"/>
		<path class="st3" d="M187.8,263.9c-3.2,2.3-6.3,3.5-9.5,3.5c-3.2,0-5.6-0.8-7.1-2.4s-2.4-3.9-2.4-6.8v-6.4c0-4.3,0-7.6-0.1-9.7
			l-4-1.1l-0.2-1c3.5-0.6,6.8-1.4,9.8-2.1l0.3,0.2c-0.1,2.4-0.2,5.4-0.2,9.1v9.6c0,2.4,0.6,4.2,1.7,5.3c1.1,1.1,2.8,1.7,4.9,1.7
			c2.1,0,4.2-0.6,6.4-1.7v-12.9c0-2.8,0-5.2-0.1-7.1l-4-1.1l-0.2-1c3.5-0.6,6.8-1.4,9.8-2.1l0.3,0.2c-0.1,2.4-0.2,5.5-0.2,9.3
			c0,7.3,0,11.8,0.1,13.4c0,0.8,0.1,1.5,0.2,2c0.1,0.5,0.3,0.9,0.6,1.2c0.3,0.3,0.7,0.5,1.3,0.6c0.6,0.1,1.3,0.2,2.2,0.2l0.2,1.2
			c-0.9,0.4-2,0.7-3.2,1c-1.2,0.3-2,0.5-2.5,0.5C189.8,267.4,188.5,266.2,187.8,263.9z"/>
		<path class="st3" d="M203.7,224.1l-0.2-1c3.6-0.7,6.9-1.4,9.9-2.1l0.3,0.2c-0.1,3.3-0.2,7.9-0.2,13.7v19.7c0,3.6,0,6.5,0.1,8.7
			c0.1,0.6,0.3,0.9,0.8,1.1l3.3,1l0.1,1.2c-2.7-0.1-5.1-0.1-7.1-0.1c-2,0-4.3,0-7,0.1l-0.1-1.2l3.4-1c0.5-0.2,0.8-0.5,0.8-1
			c0-2.3,0.1-4.8,0.1-7.6v-12.4c0-7.5,0-13.5-0.1-18.1L203.7,224.1z"/>
		<path class="st3" d="M249.9,264.4c-1.7,1.1-3.5,1.8-5.3,2.3s-3.5,0.7-5.1,0.7c-4.4,0-8-1.3-10.8-3.8c-2.7-2.5-4.1-6-4.1-10.6
			c0-4.5,1.3-8.1,3.8-11s6-4.3,10.2-4.3c3.6,0,6.4,1.1,8.4,3.2c2,2.1,3,5.1,3,8.8c0,0.6,0,1.1-0.1,1.7h-19.1c0,4.3,1,7.4,3.1,9.3
			c2,1.9,5.2,2.8,9.6,2.8c1.9,0,4-0.2,6.2-0.5L249.9,264.4z M243.9,249.1v-0.9c0-2.9-0.4-4.9-1.3-6.1c-0.9-1.2-2.2-1.8-4-1.8
			c-2.4,0-4.2,0.9-5.4,2.6c-1.2,1.7-1.9,3.8-2.1,6.3H243.9z"/>
		<path class="st3" d="M273.8,240.9c-1.2-0.3-2.4-0.5-3.8-0.5c-1.9,0-3.4,0.4-4.5,1.1c-1.2,0.7-1.7,1.7-1.7,3c0,1.2,0.3,2.2,1,2.9
			c0.7,0.7,2,1.4,3.9,2.1l2.4,0.8c2.6,0.9,4.6,2,5.8,3.3c1.2,1.2,1.9,2.8,1.9,4.8c0,2.8-1.2,5-3.6,6.6c-2.4,1.6-5.3,2.4-8.6,2.4
			c-3.1,0-6.2-0.6-9.4-1.9c0.7-2.6,1.2-5.2,1.7-7.7l1.2-0.2l2.2,6.5c1.2,0.4,2.6,0.7,4.4,0.7c1.8,0,3.3-0.4,4.4-1.2
			c1.1-0.8,1.7-1.8,1.7-3.2c0-1.3-0.4-2.3-1.1-3c-0.7-0.7-1.9-1.3-3.6-1.9l-3.1-1.1c-2.7-0.9-4.6-2-5.7-3.3
			c-1.1-1.3-1.6-2.9-1.6-4.8c0-2.6,1.3-4.7,3.8-6.3c2.5-1.5,5.4-2.3,8.7-2.3c3.1,0,5.9,0.4,8.4,1.3c-0.6,2.3-1.1,4.7-1.5,7.3
			l-1.2,0.2L273.8,240.9z"/>
		<path class="st3" d="M302.9,240.4c3.9-1.7,7.4-2.6,10.4-2.6c3.1,0,5.5,0.8,7.3,2.4c1.8,1.6,2.7,3.9,2.7,7l-0.2,12.6
			c0,1,0,1.9,0.1,2.5c0.1,0.6,0.3,1.1,0.5,1.4c0.3,0.3,0.7,0.6,1.3,0.7c0.6,0.1,1.4,0.2,2.4,0.2l0.2,1.2c-0.9,0.3-1.9,0.7-3.2,1
			s-2.1,0.5-2.6,0.5c-2,0-3.3-1-4.1-3c-2.9,2-5.5,3.1-8.1,3.1c-2.8,0-5.1-0.7-6.8-2.1c-1.7-1.4-2.6-3.3-2.6-5.9
			c0-3.1,1.4-5.4,4.2-6.9c2.8-1.5,7.1-2.2,13.1-2.2l0-2.4c0-2.3-0.6-3.9-1.7-5c-1.2-1.1-3-1.6-5.4-1.6c-1.8,0-4.1,0.3-6.9,1
			L302.9,240.4z M317.6,252.9c-4.2,0-7.1,0.4-8.7,1.3c-1.6,0.9-2.3,2.3-2.3,4.4c0,1.9,0.5,3.3,1.5,4.1c1,0.8,2.4,1.2,4.2,1.2
			c2,0,3.7-0.4,5.2-1.1L317.6,252.9z"/>
		<path class="st3" d="M333.4,239.9c3.4-0.6,6.6-1.4,9.6-2.1l0.3,0.2v3.5c3.5-2.5,6.8-3.7,9.8-3.7c2.9,0,5.1,0.8,6.7,2.4
			c1.6,1.6,2.4,3.9,2.4,6.8v10.7c0,2.5,0,4.4,0.1,5.6c0,0.5,0.3,0.9,0.8,1.1l3.4,1l0.1,1.2c-2.7-0.1-5-0.1-7-0.1c-2,0-4.2,0-6.6,0.1
			l-0.1-1.2l3-0.9c0.5-0.2,0.7-0.5,0.8-0.9c0-0.3,0-0.9,0-1.9v-13.2c0-2.5-0.6-4.3-1.8-5.3c-1.2-1.1-2.9-1.6-5.3-1.6
			c-2,0-4.1,0.6-6.3,1.8v13.2c0,2.5,0,4.8,0.1,6.9c0,0.5,0.3,0.9,0.7,1l3.1,0.9l0.1,1.2c-2.5-0.1-4.7-0.1-6.7-0.1c-2,0-4.3,0-7,0.1
			l-0.1-1.2l3.6-1c0.4-0.2,0.7-0.5,0.7-0.9c0-1.3,0-2.5,0-3.7v-10.3c0-2.6,0-5.1-0.1-7.4l-4-1.1L333.4,239.9z"/>
		<path class="st3" d="M389.9,223.1c3.6-0.7,6.9-1.4,9.9-2.1l0.3,0.2c-0.1,4.3-0.2,9-0.2,13.9v16.5c0,2.8,0,5.5,0,8.3
			c0,1,0,1.9,0.1,2.5c0.1,0.6,0.2,1.1,0.5,1.4c0.3,0.3,0.7,0.6,1.3,0.7c0.6,0.1,1.3,0.2,2.3,0.2l0.2,1.2c-0.9,0.3-2,0.7-3.2,1
			s-2.1,0.5-2.5,0.5c-2,0-3.4-1.2-4.1-3.5c-3.1,2.3-6.2,3.5-9.1,3.5c-3.7,0-6.7-1.3-9-4c-2.2-2.7-3.3-5.9-3.3-9.8
			c0-5,1.5-8.9,4.5-11.6c3-2.7,7.1-4.1,12.4-4.1c1.3,0,2.7,0.1,4.3,0.4c0-4.5,0-8.8-0.1-13l-4.1-1.2L389.9,223.1z M394.2,241.1
			c-1.3-0.4-2.8-0.6-4.5-0.6c-3.4,0-6,1-7.8,3c-1.8,2-2.7,4.9-2.7,8.9c0,3.5,0.8,6.2,2.4,8.3c1.6,2.1,3.8,3.1,6.8,3.1
			c1.9,0,3.8-0.5,5.9-1.6V241.1z"/>
		<path class="st3" d="M437.9,224.3h7.4c4.5,0,9.3,0,14.3-0.1l0.2,0.2l-1.8,9.4l-1.2,0.2l-1.9-7h-14v16.7h2.8c2.1,0,4.4,0,7-0.1
			c0.5,0,0.9-0.3,1-0.8l1.1-4.1l1.6-0.1c-0.1,2.8-0.1,4.9-0.1,6.3c0,1.3,0,3.4,0.1,6.2l-1.6,0.1l-1.1-4.1c-0.2-0.5-0.5-0.8-0.9-0.8
			c-2.6,0-5-0.1-7.1-0.1h-2.7v11c0,2.2,0,4.5,0.1,6.6h14.5l3.7-7.7l1.4-0.2l-0.7,10.5l-0.2,0.2c-5.2-0.1-10.1-0.1-14.5-0.1H438
			c-2.4,0-4.9,0-7.5,0.1l-0.1-1.3l3.7-1.1c0.5-0.1,0.8-0.5,0.8-0.9c0-0.8,0-1.7,0-2.7c0-1,0-2.1,0-3.3v-24.6c0-1,0-2,0-2.8
			c0-0.8,0-1.6,0-2.2c0-0.5-0.3-0.9-0.7-1l-3.8-1.2l-0.1-1.3C433,224.3,435.5,224.3,437.9,224.3z"/>
		<path class="st3" d="M468.1,224.1l-0.2-1c3.6-0.7,6.9-1.4,9.9-2.1l0.3,0.2c-0.1,3.3-0.2,7.9-0.2,13.7v19.7c0,3.6,0,6.5,0.1,8.7
			c0.1,0.6,0.3,0.9,0.8,1.1l3.3,1l0.1,1.2c-2.7-0.1-5.1-0.1-7.1-0.1c-2,0-4.3,0-7,0.1l-0.1-1.2l3.4-1c0.5-0.2,0.8-0.5,0.8-1
			c0-2.3,0.1-4.8,0.1-7.6v-12.4c0-7.5,0-13.5-0.1-18.1L468.1,224.1z"/>
		<path class="st3" d="M514.3,264.4c-1.7,1.1-3.5,1.8-5.3,2.3s-3.5,0.7-5.1,0.7c-4.4,0-8-1.3-10.8-3.8c-2.7-2.5-4.1-6-4.1-10.6
			c0-4.5,1.3-8.1,3.8-11c2.6-2.8,6-4.3,10.2-4.3c3.6,0,6.4,1.1,8.4,3.2c2,2.1,3,5.1,3,8.8c0,0.6,0,1.1-0.1,1.7h-19.1
			c0,4.3,1,7.4,3.1,9.3c2,1.9,5.2,2.8,9.6,2.8c1.9,0,4-0.2,6.2-0.5L514.3,264.4z M508.3,249.1v-0.9c0-2.9-0.5-4.9-1.3-6.1
			c-0.9-1.2-2.2-1.8-4-1.8c-2.4,0-4.2,0.9-5.4,2.6c-1.2,1.7-1.9,3.8-2.1,6.3H508.3z"/>
		<path class="st3" d="M546.3,264.4c-1.3,0.8-2.8,1.6-4.6,2.1c-1.8,0.6-3.7,0.9-5.5,0.9c-4.4,0-7.8-1.3-10.5-3.8
			c-2.6-2.6-3.9-6-3.9-10.2c0-4.6,1.5-8.4,4.4-11.2c3-2.9,6.7-4.3,11.3-4.3c3,0,5.8,0.6,8.6,1.8c-0.7,2.7-1.3,5.5-1.8,8.3l-1.2,0.2
			l-2.5-7.3c-0.9-0.3-2-0.5-3.1-0.5c-3,0-5.4,1-7.1,3.1c-1.7,2.1-2.5,4.9-2.5,8.3c0,4.1,1,7.1,2.9,9c1.9,1.9,5,2.9,9.1,2.9
			c1.9,0,4-0.2,6.1-0.6L546.3,264.4z"/>
		<path class="st3" d="M562,241.8c-0.1,6.8-0.2,12.3-0.2,16.5c0,2.1,0.3,3.5,0.9,4.3c0.6,0.8,1.8,1.2,3.6,1.2c1.4,0,3.2-0.2,5.4-0.5
			l0.2,1.4c-3.5,1.8-6.6,2.6-9.4,2.6c-2.2,0-3.9-0.6-5-1.8c-1.1-1.2-1.6-3-1.6-5.3c0-3.9,0.1-10.1,0.2-18.6l-4.2-1l-0.2-1.2l4.7-0.4
			l2.1-7.3c1.2-0.3,2.2-0.6,3.2-0.9l0.3,0.2c-0.1,2.4-0.1,4.7-0.1,6.8v1.1h9.1v2.9H562z"/>
		<path class="st3" d="M577.6,239.9c3.5-0.7,6.8-1.4,9.8-2.1l0.3,0.2c-0.1,2.6-0.2,5.5-0.2,8.7v11.6c0,2.4,0,4.1,0.1,5
			c0,0.5,0.3,0.9,0.8,1.1l3.5,1l0.1,1.2c-2.8-0.1-5.2-0.1-7.2-0.1c-2,0-4.3,0-7.1,0.1l-0.1-1.2l3.5-1c0.5-0.2,0.7-0.5,0.8-0.9
			c0-0.8,0.1-2.1,0.1-4v-10.1c0-2.6,0-5.1-0.1-7.3l-4-1.1L577.6,239.9z M587.9,227.1c0,1.1-0.3,1.9-1,2.6c-0.7,0.7-1.5,1-2.6,1
			c-1,0-1.8-0.3-2.5-0.9c-0.6-0.6-1-1.5-1-2.5c0-1.1,0.3-2,1-2.6c0.7-0.6,1.5-1,2.6-1c1,0,1.8,0.3,2.4,0.9
			C587.6,225.2,587.9,226,587.9,227.1z"/>
		<path class="st3" d="M627.5,252c0,4.6-1.4,8.3-4.2,11.2c-2.8,2.8-6.3,4.3-10.6,4.3c-4.2,0-7.6-1.3-10.1-4
			c-2.6-2.7-3.9-6.2-3.9-10.5c0-4.4,1.3-8.1,4-10.9c2.7-2.8,6.3-4.2,10.7-4.2c4.2,0,7.6,1.3,10.2,3.9
			C626.3,244.3,627.5,247.7,627.5,252z M605,252.3c0,3.8,0.7,6.8,2.1,9.2c1.4,2.4,3.5,3.6,6.3,3.6c2.6,0,4.6-1,5.9-3.1
			c1.4-2.1,2-5.2,2-9.3c0-3.9-0.7-6.9-2.1-9.1c-1.4-2.2-3.5-3.3-6.2-3.3c-2.6,0-4.5,1-5.9,3C605.7,245.2,605,248.2,605,252.3z"/>
		<path class="st3" d="M634.7,239.9c3.4-0.6,6.6-1.4,9.6-2.1l0.3,0.2v3.5c3.5-2.5,6.8-3.7,9.8-3.7c2.9,0,5.1,0.8,6.7,2.4
			c1.6,1.6,2.4,3.9,2.4,6.8v10.7c0,2.5,0,4.4,0.1,5.6c0,0.5,0.3,0.9,0.8,1.1l3.4,1l0.1,1.2c-2.7-0.1-5-0.1-7-0.1c-2,0-4.2,0-6.6,0.1
			l-0.1-1.2l3-0.9c0.5-0.2,0.7-0.5,0.8-0.9c0-0.3,0-0.9,0-1.9v-13.2c0-2.5-0.6-4.3-1.8-5.3c-1.2-1.1-2.9-1.6-5.3-1.6
			c-2,0-4.1,0.6-6.3,1.8v13.2c0,2.5,0,4.8,0.1,6.9c0,0.5,0.3,0.9,0.7,1l3.1,0.9l0.1,1.2c-2.5-0.1-4.7-0.1-6.7-0.1c-2,0-4.3,0-7,0.1
			l-0.1-1.2l3.6-1c0.4-0.2,0.7-0.5,0.7-0.9c0-1.3,0-2.5,0-3.7v-10.3c0-2.6,0-5.1-0.1-7.4l-4-1.1L634.7,239.9z"/>
		<path class="st3" d="M690.8,240.9c-1.2-0.3-2.4-0.5-3.8-0.5c-1.9,0-3.4,0.4-4.5,1.1c-1.2,0.7-1.7,1.7-1.7,3c0,1.2,0.3,2.2,1,2.9
			c0.7,0.7,2,1.4,3.9,2.1l2.4,0.8c2.6,0.9,4.6,2,5.8,3.3c1.2,1.2,1.9,2.8,1.9,4.8c0,2.8-1.2,5-3.6,6.6c-2.4,1.6-5.3,2.4-8.6,2.4
			c-3.1,0-6.2-0.6-9.4-1.9c0.7-2.6,1.2-5.2,1.7-7.7l1.2-0.2l2.2,6.5c1.2,0.4,2.6,0.7,4.4,0.7c1.8,0,3.3-0.4,4.4-1.2
			c1.1-0.8,1.7-1.8,1.7-3.2c0-1.3-0.4-2.3-1.1-3c-0.7-0.7-1.9-1.3-3.6-1.9l-3.1-1.1c-2.7-0.9-4.6-2-5.7-3.3
			c-1.1-1.3-1.6-2.9-1.6-4.8c0-2.6,1.3-4.7,3.8-6.3c2.5-1.5,5.4-2.3,8.7-2.3c3.1,0,5.9,0.4,8.4,1.3c-0.6,2.3-1.1,4.7-1.5,7.3
			l-1.2,0.2L690.8,240.9z"/>
	</g>
	<rect x="123.4" y="232" class="st1" width="601.2" height="101"/>
	<text transform="matrix(1 0 0 1 123.3657 260.3994)" class="st4 st5 st6 st7">Rules and Elections</text>
</g>
</svg>
